<svg xmlns="http://www.w3.org/2000/svg">
  <symbol id="heart-icon" viewBox="0 0 24 24">
    <path fill="currentColor" d="M12 21 C12 21 3 14 3 8.5 C3 5.5 5.5 3 8.5 3 C10.4 3 12.1 4 13 5.6 C13.9 4 15.6 3 17.5 3 C20.5 3 23 5.5 23 8.5 C23 14 12 21 12 21 Z"/>
  </symbol>
  <symbol id="gift-icon" viewBox="0 0 24 24">
    <path fill="none" stroke="currentColor" stroke-width="1.8" stroke-linecap="round" stroke-linejoin="round" d="M20 12v8a2 2 0 0 1-2 2H6a2 2 0 0 1-2-2v-8m16 0H4m16 0h-4a2 2 0 1 1 0-4h4m0 4v-4M4 12h4a2 2 0 1 0 0-4H4m0 4V8m8 8V4m0 0a2.5 2.5 0 1 0 0 5m0-5a2.5 2.5 0 1 1 0 5"/>
  </symbol>
  <symbol id="mail-icon" viewBox="0 0 24 24">
    <path fill="none" stroke="currentColor" stroke-width="1.8" stroke-linecap="round" stroke-linejoin="round" d="M4 7l8 6 8-6M4 7v10a2 2 0 0 0 2 2h12a2 2 0 0 0 2-2V7a2 2 0 0 0-2-2H6a2 2 0 0 0-2 2z"/>
  </symbol>
  <symbol id="jar-icon" viewBox="0 0 24 24">
    <path fill="none" stroke="currentColor" stroke-width="1.8" stroke-linecap="round" d="M8 4h8M7 7h10l-1 14H8L7 7zm5 4v6m-2-3h4"/>
  </symbol>
  <symbol id="game-icon" viewBox="0 0 24 24">
    <path fill="none" stroke="currentColor" stroke-width="1.8" stroke-linecap="round" stroke-linejoin="round" d="M6 11h4m-2-2v4m7-1h.01M15 13h.01M8 16h8a4 4 0 0 0 4-4V8a4 4 0 0 0-4-4H8a4 4 0 0 0-4 4v4a4 4 0 0 0 4 4z"/>
  </symbol>
  <symbol id="sun-icon" viewBox="0 0 24 24">
    <circle cx="12" cy="12" r="4" fill="none" stroke="currentColor" stroke-width="1.8"/>
    <path fill="none" stroke="currentColor" stroke-width="1.8" stroke-linecap="round" d="M12 2v2m0 16v2M4.9 4.9l1.4 1.4m11.4 11.4 1.4 1.4M2 12h2m16 0h2M4.9 19.1l1.4-1.4m11.4-11.4 1.4-1.4"/>
  </symbol>
  <symbol id="star-icon" viewBox="0 0 24 24">
    <path fill="none" stroke="currentColor" stroke-width="1.8" stroke-linejoin="round" d="m12 3 2.4 5.8 6.3.5-4.8 4.1 1.5 6.1L12 17l-5.4 3.5 1.5-6.1-4.8-4.1 6.3-.5L12 3z"/>
  </symbol>
  <symbol id="ishu-logo" viewBox="0 0 64 64">
    <rect width="64" height="64" rx="16" fill="#ffe0ec"/>
    <path fill="#e84393" d="M32 50 C32 50 12 36 12 24 C12 17 17 12 24 12 C27.5 12 30.5 13.5 32 16 C33.5 13.5 36.5 12 40 12 C47 12 52 17 52 24 C52 36 32 50 32 50 Z"/>
    <text x="31" y="28" text-anchor="middle" dominant-baseline="central" font-family="Georgia, serif" font-size="14" font-weight="700" font-style="italic" fill="#fff">I</text>
  </symbol>
</svg>
